<svg xmlns="http://www.w3.org/2000/svg" xmlns:xlink="http://www.w3.org/1999/xlink" viewBox="0 75 1102 150">
  <path fill="#DDD" d="M697.1 162.3h-26.9c-6.6 0-12-5.4-12-12v-26.9c0-6.6 5.4-12 12-12h26.9c6.6 0 12 5.4 12 12v26.9c0 6.6-5.4 12-12 12zm64.9 0h-26.9c-6.6 0-12-5.4-12-12v-26.9c0-6.6 5.4-12 12-12H762c6.6 0 12 5.4 12 12v26.9c0 6.6-5.4 12-12 12zm65.7.1h-26.9c-6.6 0-12-5.4-12-12v-26.9c0-6.6 5.4-12 12-12h26.9c6.6 0 12 5.4 12 12v26.9c0 6.6-5.4 12-12 12z"/>
  <path fill="none" stroke="#1E1935" stroke-width="3" stroke-miterlimit="10" d="M96.2 167.1h-38c-6.6 0-12-5.4-12-12v-38c0-6.6 5.4-12 12-12h38c6.6 0 12 5.4 12 12v38c0 6.6-5.4 12-12 12z"/>
  <path d="M70.4 143.6H67v-16.5h3.4v16.5zm3.3-16.4h6.8c2.4 0 4.4.7 5.9 2.2 1.5 1.5 2.3 3.5 2.3 6s-.8 4.6-2.3 6c-1.5 1.5-3.5 2.2-5.9 2.2h-6.8v-16.4zm3.4 2.9v10.6h3.4c2.9 0 4.8-1.9 4.8-5.3 0-3.5-1.8-5.3-4.8-5.3h-3.4z"/>
  <path fill="none" stroke="#1E1935" stroke-width="3" stroke-miterlimit="10" d="M843 173.5H527.5c-6.6 0-12-5.4-12-12v-49.1c0-6.6 5.4-12 12-12H843c6.6 0 12 5.4 12 12v49.1c0 6.6-5.4 12-12 12z"/>
  <path fill="#DDD" d="M567.3 162.3h-26.9c-6.6 0-12-5.4-12-12v-26.9c0-6.6 5.4-12 12-12h26.9c6.6 0 12 5.4 12 12v26.9c0 6.6-5.4 12-12 12zm63.6 0H604c-6.6 0-12-5.4-12-12v-26.9c0-6.6 5.4-12 12-12h26.9c6.6 0 12 5.4 12 12v26.9c0 6.6-5.4 12-12 12z"/>
  <path fill="#1E1935" d="M485.9 124.3c.4 0 .8.1 1.1.4l10.7 10.7c.3.3.4.7.4 1.1 0 .4-.1.8-.4 1.1L487 148.4c-.3.3-.7.4-1.1.4-.4 0-.8-.1-1.1-.4-.3-.3-.4-.7-.4-1.1 0-.4.1-.8.4-1.1l8.1-8.1c1.5-1.5 1.5-1.6 0-3.1l-8.1-8.1c-.3-.3-.4-.7-.4-1.1 0-.4.1-.8.4-1.1.3-.2.6-.4 1.1-.4z" />
  <path fill="none" stroke="#1E1935" stroke-width="4" stroke-miterlimit="10" d="M215 137h-87m350 0h-87" stroke-linecap="round" stroke-linejoin="round" stroke-dasharray="0 8"/>
  <path fill="#1E1935" stroke="#1E1935" stroke-width="3" stroke-miterlimit="10" d="M239.1 116.5h137.8v38.9H239.1z"/>
  <path fill="#FFF" d="M275.2 129.7h-8.1v4h7v3.3h-7v4.5h8.1v3.4h-11.9v-18.6h11.9v3.4zm23.4 15.2h-3.8v-10l-5.1 9.8h-2.5l-5.1-9.8v10h-3.8v-18.6h3.4l6.8 12.8 6.8-12.8h3.4v18.6zm3.7-18.5h7.8c3.5 0 5.8 1.8 5.8 5.2 0 1.6-.6 2.8-1.8 3.6 1.5.6 2.6 2.1 2.6 4.3 0 3.5-2.4 5.4-6 5.4h-8.3v-18.5zm3.9 3.3v4.1h3.7c1.4 0 2.1-.7 2.1-2 0-1.4-.9-2.1-2.3-2.1h-3.5zm0 7.3v4.5h4c1.7 0 2.5-.7 2.5-2.2 0-1.5-1-2.3-2.5-2.3h-4zm25.6-7.3h-8.1v4h7v3.3h-7v4.5h8.1v3.4h-11.9v-18.6h11.9v3.4zm3-3.3h7.6c2.7 0 4.9.8 6.6 2.5s2.6 3.9 2.6 6.8-.9 5.1-2.6 6.8c-1.7 1.7-3.9 2.5-6.6 2.5h-7.6v-18.6zm3.8 3.2v12h3.8c3.3 0 5.4-2.1 5.4-6s-2-6-5.4-6h-3.8z"/>
</svg>
